<?xml version="1.0" encoding="UTF-8" standalone="no"?>
<!DOCTYPE svg PUBLIC "-//W3C//DTD SVG 1.1//EN"
 "http://www.w3.org/Graphics/SVG/1.1/DTD/svg11.dtd">
<!-- Generated by graphviz version 2.38.0 (20140413.2041)
 -->
<!-- Title: snakemake_dag Pages: 1 -->
<svg width="147pt" height="1052pt"
 viewBox="0.00 0.00 147.00 1052.00" xmlns="http://www.w3.org/2000/svg" xmlns:xlink="http://www.w3.org/1999/xlink">
<g id="graph0" class="graph" transform="scale(1 1) rotate(0) translate(4 1048)">
<title>snakemake_dag</title>
<polygon fill="white" stroke="none" points="-4,4 -4,-1048 143,-1048 143,4 -4,4"/>
<!-- 0 -->
<g id="node1" class="node"><title>0</title>
<path fill="none" stroke="#d89556" stroke-width="2" d="M84.5,-900C84.5,-900 54.5,-900 54.5,-900 48.5,-900 42.5,-894 42.5,-888 42.5,-888 42.5,-876 42.5,-876 42.5,-870 48.5,-864 54.5,-864 54.5,-864 84.5,-864 84.5,-864 90.5,-864 96.5,-870 96.5,-876 96.5,-876 96.5,-888 96.5,-888 96.5,-894 90.5,-900 84.5,-900"/>
<text text-anchor="middle" x="69.5" y="-879.5" font-family="sans" font-size="10.00">dedupe</text>
</g>
<!-- 4 -->
<g id="node5" class="node"><title>4</title>
<path fill="none" stroke="#b6d856" stroke-width="2" d="M97,-828C97,-828 42,-828 42,-828 36,-828 30,-822 30,-816 30,-816 30,-804 30,-804 30,-798 36,-792 42,-792 42,-792 97,-792 97,-792 103,-792 109,-798 109,-804 109,-804 109,-816 109,-816 109,-822 103,-828 97,-828"/>
<text text-anchor="middle" x="69.5" y="-807.5" font-family="sans" font-size="10.00">trimmomatic</text>
</g>
<!-- 0&#45;&gt;4 -->
<g id="edge5" class="edge"><title>0&#45;&gt;4</title>
<path fill="none" stroke="grey" stroke-width="2" d="M69.5,-863.697C69.5,-855.983 69.5,-846.712 69.5,-838.112"/>
<polygon fill="grey" stroke="grey" stroke-width="2" points="73.0001,-838.104 69.5,-828.104 66.0001,-838.104 73.0001,-838.104"/>
</g>
<!-- 1 -->
<g id="node2" class="node"><title>1</title>
<path fill="none" stroke="#d87556" stroke-width="2" d="M90.5,-756C90.5,-756 48.5,-756 48.5,-756 42.5,-756 36.5,-750 36.5,-744 36.5,-744 36.5,-732 36.5,-732 36.5,-726 42.5,-720 48.5,-720 48.5,-720 90.5,-720 90.5,-720 96.5,-720 102.5,-726 102.5,-732 102.5,-732 102.5,-744 102.5,-744 102.5,-750 96.5,-756 90.5,-756"/>
<text text-anchor="middle" x="69.5" y="-735.5" font-family="sans" font-size="10.00">bwa_mem</text>
</g>
<!-- 12 -->
<g id="node13" class="node"><title>12</title>
<path fill="none" stroke="#56b9d8" stroke-width="2" d="M122,-684C122,-684 17,-684 17,-684 11,-684 5,-678 5,-672 5,-672 5,-660 5,-660 5,-654 11,-648 17,-648 17,-648 122,-648 122,-648 128,-648 134,-654 134,-660 134,-660 134,-672 134,-672 134,-678 128,-684 122,-684"/>
<text text-anchor="middle" x="69.5" y="-663.5" font-family="sans" font-size="10.00">samtools_sam_to_bam</text>
</g>
<!-- 1&#45;&gt;12 -->
<g id="edge12" class="edge"><title>1&#45;&gt;12</title>
<path fill="none" stroke="grey" stroke-width="2" d="M69.5,-719.697C69.5,-711.983 69.5,-702.712 69.5,-694.112"/>
<polygon fill="grey" stroke="grey" stroke-width="2" points="73.0001,-694.104 69.5,-684.104 66.0001,-694.104 73.0001,-694.104"/>
</g>
<!-- 2 -->
<g id="node3" class="node"><title>2</title>
<path fill="none" stroke="#d8b456" stroke-width="2" d="M94,-252C94,-252 45,-252 45,-252 39,-252 33,-246 33,-240 33,-240 33,-228 33,-228 33,-222 39,-216 45,-216 45,-216 94,-216 94,-216 100,-216 106,-222 106,-228 106,-228 106,-240 106,-240 106,-246 100,-252 94,-252"/>
<text text-anchor="middle" x="69.5" y="-231.5" font-family="sans" font-size="10.00">extract_info</text>
</g>
<!-- 9 -->
<g id="node10" class="node"><title>9</title>
<path fill="none" stroke="#56d8b9" stroke-width="2" d="M90.5,-180C90.5,-180 48.5,-180 48.5,-180 42.5,-180 36.5,-174 36.5,-168 36.5,-168 36.5,-156 36.5,-156 36.5,-150 42.5,-144 48.5,-144 48.5,-144 90.5,-144 90.5,-144 96.5,-144 102.5,-150 102.5,-156 102.5,-156 102.5,-168 102.5,-168 102.5,-174 96.5,-180 90.5,-180"/>
<text text-anchor="middle" x="69.5" y="-159.5" font-family="sans" font-size="10.00">count_info</text>
</g>
<!-- 2&#45;&gt;9 -->
<g id="edge10" class="edge"><title>2&#45;&gt;9</title>
<path fill="none" stroke="grey" stroke-width="2" d="M69.5,-215.697C69.5,-207.983 69.5,-198.712 69.5,-190.112"/>
<polygon fill="grey" stroke="grey" stroke-width="2" points="73.0001,-190.104 69.5,-180.104 66.0001,-190.104 73.0001,-190.104"/>
</g>
<!-- 3 -->
<g id="node4" class="node"><title>3</title>
<path fill="none" stroke="#d6d856" stroke-width="2" d="M127,-468C127,-468 12,-468 12,-468 6,-468 0,-462 0,-456 0,-456 0,-444 0,-444 0,-438 6,-432 12,-432 12,-432 127,-432 127,-432 133,-432 139,-438 139,-444 139,-444 139,-456 139,-456 139,-462 133,-468 127,-468"/>
<text text-anchor="middle" x="69.5" y="-447.5" font-family="sans" font-size="10.00">samtools_get_unmapped</text>
</g>
<!-- 7 -->
<g id="node8" class="node"><title>7</title>
<path fill="none" stroke="#59d856" stroke-width="2" d="M84.5,-396C84.5,-396 54.5,-396 54.5,-396 48.5,-396 42.5,-390 42.5,-384 42.5,-384 42.5,-372 42.5,-372 42.5,-366 48.5,-360 54.5,-360 54.5,-360 84.5,-360 84.5,-360 90.5,-360 96.5,-366 96.5,-372 96.5,-372 96.5,-384 96.5,-384 96.5,-390 90.5,-396 84.5,-396"/>
<text text-anchor="middle" x="69.5" y="-375.5" font-family="sans" font-size="10.00">seqkit</text>
</g>
<!-- 3&#45;&gt;7 -->
<g id="edge8" class="edge"><title>3&#45;&gt;7</title>
<path fill="none" stroke="grey" stroke-width="2" d="M69.5,-431.697C69.5,-423.983 69.5,-414.712 69.5,-406.112"/>
<polygon fill="grey" stroke="grey" stroke-width="2" points="73.0001,-406.104 69.5,-396.104 66.0001,-406.104 73.0001,-406.104"/>
</g>
<!-- 4&#45;&gt;1 -->
<g id="edge2" class="edge"><title>4&#45;&gt;1</title>
<path fill="none" stroke="grey" stroke-width="2" d="M69.5,-791.697C69.5,-783.983 69.5,-774.712 69.5,-766.112"/>
<polygon fill="grey" stroke="grey" stroke-width="2" points="73.0001,-766.104 69.5,-756.104 66.0001,-766.104 73.0001,-766.104"/>
</g>
<!-- 5 -->
<g id="node6" class="node"><title>5</title>
<path fill="none" stroke="#97d856" stroke-width="2" d="M100,-540C100,-540 39,-540 39,-540 33,-540 27,-534 27,-528 27,-528 27,-516 27,-516 27,-510 33,-504 39,-504 39,-504 100,-504 100,-504 106,-504 112,-510 112,-516 112,-516 112,-528 112,-528 112,-534 106,-540 100,-540"/>
<text text-anchor="middle" x="69.5" y="-519.5" font-family="sans" font-size="10.00">samtools_sort</text>
</g>
<!-- 5&#45;&gt;3 -->
<g id="edge4" class="edge"><title>5&#45;&gt;3</title>
<path fill="none" stroke="grey" stroke-width="2" d="M69.5,-503.697C69.5,-495.983 69.5,-486.712 69.5,-478.112"/>
<polygon fill="grey" stroke="grey" stroke-width="2" points="73.0001,-478.104 69.5,-468.104 66.0001,-478.104 73.0001,-478.104"/>
</g>
<!-- 6 -->
<g id="node7" class="node"><title>6</title>
<path fill="none" stroke="#78d856" stroke-width="2" d="M100.5,-612C100.5,-612 38.5,-612 38.5,-612 32.5,-612 26.5,-606 26.5,-600 26.5,-600 26.5,-588 26.5,-588 26.5,-582 32.5,-576 38.5,-576 38.5,-576 100.5,-576 100.5,-576 106.5,-576 112.5,-582 112.5,-588 112.5,-588 112.5,-600 112.5,-600 112.5,-606 106.5,-612 100.5,-612"/>
<text text-anchor="middle" x="69.5" y="-591.5" font-family="sans" font-size="10.00">samtools_view</text>
</g>
<!-- 6&#45;&gt;5 -->
<g id="edge6" class="edge"><title>6&#45;&gt;5</title>
<path fill="none" stroke="grey" stroke-width="2" d="M69.5,-575.697C69.5,-567.983 69.5,-558.712 69.5,-550.112"/>
<polygon fill="grey" stroke="grey" stroke-width="2" points="73.0001,-550.104 69.5,-540.104 66.0001,-550.104 73.0001,-550.104"/>
</g>
<!-- 13 -->
<g id="node14" class="node"><title>13</title>
<path fill="none" stroke="#569ad8" stroke-width="2" d="M91.5,-324C91.5,-324 47.5,-324 47.5,-324 41.5,-324 35.5,-318 35.5,-312 35.5,-312 35.5,-300 35.5,-300 35.5,-294 41.5,-288 47.5,-288 47.5,-288 91.5,-288 91.5,-288 97.5,-288 103.5,-294 103.5,-300 103.5,-300 103.5,-312 103.5,-312 103.5,-318 97.5,-324 91.5,-324"/>
<text text-anchor="middle" x="69.5" y="-303.5" font-family="sans" font-size="10.00">blast_fungi</text>
</g>
<!-- 7&#45;&gt;13 -->
<g id="edge13" class="edge"><title>7&#45;&gt;13</title>
<path fill="none" stroke="grey" stroke-width="2" d="M69.5,-359.697C69.5,-351.983 69.5,-342.712 69.5,-334.112"/>
<polygon fill="grey" stroke="grey" stroke-width="2" points="73.0001,-334.104 69.5,-324.104 66.0001,-334.104 73.0001,-334.104"/>
</g>
<!-- 8 -->
<g id="node9" class="node"><title>8</title>
<path fill="none" stroke="#56d89a" stroke-width="2" d="M84.5,-36C84.5,-36 54.5,-36 54.5,-36 48.5,-36 42.5,-30 42.5,-24 42.5,-24 42.5,-12 42.5,-12 42.5,-6 48.5,-0 54.5,-0 54.5,-0 84.5,-0 84.5,-0 90.5,-0 96.5,-6 96.5,-12 96.5,-12 96.5,-24 96.5,-24 96.5,-30 90.5,-36 84.5,-36"/>
<text text-anchor="middle" x="69.5" y="-15.5" font-family="sans" font-size="10.00">all</text>
</g>
<!-- 11 -->
<g id="node12" class="node"><title>11</title>
<path fill="none" stroke="#56d8d8" stroke-width="2" d="M90,-108C90,-108 49,-108 49,-108 43,-108 37,-102 37,-96 37,-96 37,-84 37,-84 37,-78 43,-72 49,-72 49,-72 90,-72 90,-72 96,-72 102,-78 102,-84 102,-84 102,-96 102,-96 102,-102 96,-108 90,-108"/>
<text text-anchor="middle" x="69.5" y="-87.5" font-family="sans" font-size="10.00">getnames</text>
</g>
<!-- 9&#45;&gt;11 -->
<g id="edge11" class="edge"><title>9&#45;&gt;11</title>
<path fill="none" stroke="grey" stroke-width="2" d="M69.5,-143.697C69.5,-135.983 69.5,-126.712 69.5,-118.112"/>
<polygon fill="grey" stroke="grey" stroke-width="2" points="73.0001,-118.104 69.5,-108.104 66.0001,-118.104 73.0001,-118.104"/>
</g>
<!-- 10 -->
<g id="node11" class="node"><title>10</title>
<path fill="none" stroke="#d85656" stroke-width="2" d="M97.5,-1044C97.5,-1044 41.5,-1044 41.5,-1044 35.5,-1044 29.5,-1038 29.5,-1032 29.5,-1032 29.5,-1020 29.5,-1020 29.5,-1014 35.5,-1008 41.5,-1008 41.5,-1008 97.5,-1008 97.5,-1008 103.5,-1008 109.5,-1014 109.5,-1020 109.5,-1020 109.5,-1032 109.5,-1032 109.5,-1038 103.5,-1044 97.5,-1044"/>
<text text-anchor="middle" x="69.5" y="-1023.5" font-family="sans" font-size="10.00">iget_samples</text>
</g>
<!-- 14 -->
<g id="node15" class="node"><title>14</title>
<path fill="none" stroke="#567bd8" stroke-width="2" d="M84.5,-972C84.5,-972 54.5,-972 54.5,-972 48.5,-972 42.5,-966 42.5,-960 42.5,-960 42.5,-948 42.5,-948 42.5,-942 48.5,-936 54.5,-936 54.5,-936 84.5,-936 84.5,-936 90.5,-936 96.5,-942 96.5,-948 96.5,-948 96.5,-960 96.5,-960 96.5,-966 90.5,-972 84.5,-972"/>
<text text-anchor="middle" x="69.5" y="-951.5" font-family="sans" font-size="10.00">repair</text>
</g>
<!-- 10&#45;&gt;14 -->
<g id="edge14" class="edge"><title>10&#45;&gt;14</title>
<path fill="none" stroke="grey" stroke-width="2" d="M69.5,-1007.7C69.5,-999.983 69.5,-990.712 69.5,-982.112"/>
<polygon fill="grey" stroke="grey" stroke-width="2" points="73.0001,-982.104 69.5,-972.104 66.0001,-982.104 73.0001,-982.104"/>
</g>
<!-- 11&#45;&gt;8 -->
<g id="edge9" class="edge"><title>11&#45;&gt;8</title>
<path fill="none" stroke="grey" stroke-width="2" d="M69.5,-71.6966C69.5,-63.9827 69.5,-54.7125 69.5,-46.1124"/>
<polygon fill="grey" stroke="grey" stroke-width="2" points="73.0001,-46.1043 69.5,-36.1043 66.0001,-46.1044 73.0001,-46.1043"/>
</g>
<!-- 12&#45;&gt;6 -->
<g id="edge7" class="edge"><title>12&#45;&gt;6</title>
<path fill="none" stroke="grey" stroke-width="2" d="M69.5,-647.697C69.5,-639.983 69.5,-630.712 69.5,-622.112"/>
<polygon fill="grey" stroke="grey" stroke-width="2" points="73.0001,-622.104 69.5,-612.104 66.0001,-622.104 73.0001,-622.104"/>
</g>
<!-- 13&#45;&gt;2 -->
<g id="edge3" class="edge"><title>13&#45;&gt;2</title>
<path fill="none" stroke="grey" stroke-width="2" d="M69.5,-287.697C69.5,-279.983 69.5,-270.712 69.5,-262.112"/>
<polygon fill="grey" stroke="grey" stroke-width="2" points="73.0001,-262.104 69.5,-252.104 66.0001,-262.104 73.0001,-262.104"/>
</g>
<!-- 14&#45;&gt;0 -->
<g id="edge1" class="edge"><title>14&#45;&gt;0</title>
<path fill="none" stroke="grey" stroke-width="2" d="M69.5,-935.697C69.5,-927.983 69.5,-918.712 69.5,-910.112"/>
<polygon fill="grey" stroke="grey" stroke-width="2" points="73.0001,-910.104 69.5,-900.104 66.0001,-910.104 73.0001,-910.104"/>
</g>
</g>
</svg>
